<?xml version="1.0" encoding="utf-8"?>
<!-- Generator: Adobe Illustrator 24.3.0, SVG Export Plug-In . SVG Version: 6.00 Build 0)  -->
<svg version="1.1" id="Ebene_1" xmlns="http://www.w3.org/2000/svg" xmlns:xlink="http://www.w3.org/1999/xlink" x="0px" y="0px"
	 viewBox="0 0 622.1 188.1" style="enable-background:new 0 0 622.1 188.1;" xml:space="preserve">
<style type="text/css">
	.st0{display:none;}
	.st1{display:inline;fill:#FFFFFF;}
	.st2{display:inline;}
	.st3{clip-path:url(#SVGID_2_);}
	.st4{clip-path:url(#SVGID_4_);fill:#FFFFFF;}
	.st5{clip-path:url(#SVGID_6_);fill:#FFFFFF;}
	.st6{clip-path:url(#SVGID_8_);fill:#FFFFFF;}
	.st7{clip-path:url(#SVGID_10_);fill:#FFFFFF;}
	.st8{clip-path:url(#SVGID_12_);fill:#FFFFFF;}
	.st9{clip-path:url(#SVGID_14_);fill:#FFFFFF;}
	.st10{clip-path:url(#SVGID_16_);fill:#FFFFFF;}
	.st11{clip-path:url(#SVGID_18_);fill:#FFFFFF;}
	.st12{clip-path:url(#SVGID_20_);fill:#FFFFFF;}
	.st13{clip-path:url(#SVGID_22_);fill:#FFFFFF;}
	.st14{clip-path:url(#SVGID_24_);fill:#FFFFFF;}
	.st15{clip-path:url(#SVGID_26_);fill:#FFFFFF;}
	.st16{clip-path:url(#SVGID_28_);fill:#FFFFFF;}
	.st17{clip-path:url(#SVGID_30_);fill:#FFFFFF;}
	.st18{clip-path:url(#SVGID_32_);fill:#FFFFFF;}
	.st19{clip-path:url(#SVGID_34_);fill:#FFFFFF;}
	.st20{clip-path:url(#SVGID_36_);fill:#FFFFFF;}
	.st21{clip-path:url(#SVGID_38_);fill:#FFFFFF;}
</style>
<g class="st0">
	<path class="st1" d="M310,90.1c0-3.6-2.9-6.5-6.5-6.5s-6.5,2.9-6.5,6.5s2.9,6.5,6.5,6.5S310,93.7,310,90.1z"/>
	<path class="st1" d="M310,73.1c0-3.6-2.9-6.5-6.5-6.5s-6.5,2.9-6.5,6.5s2.9,6.5,6.5,6.5S310,76.7,310,73.1z"/>
	<path class="st1" d="M325,81.1c0-3.6-2.9-6.5-6.5-6.5s-6.5,2.9-6.5,6.5s2.9,6.5,6.5,6.5S325,84.7,325,81.1z"/>
	<path class="st1" d="M325,98.1c0-3.6-2.9-6.5-6.5-6.5s-6.5,2.9-6.5,6.5s2.9,6.5,6.5,6.5S325,101.7,325,98.1z"/>
	<path class="st1" d="M325,115.1c0-3.6-2.9-6.5-6.5-6.5s-6.5,2.9-6.5,6.5s2.9,6.5,6.5,6.5S325,118.7,325,115.1z"/>
	<path class="st1" d="M310,107.1c0-3.6-2.9-6.5-6.5-6.5s-6.5,2.9-6.5,6.5s2.9,6.5,6.5,6.5S310,110.7,310,107.1z"/>
</g>
<g class="st0">
	<g class="st2">
		<g>
			<g>
				<defs>
					<rect id="SVGID_1_" x="1.3" y="0.7" width="619.5" height="186.6"/>
				</defs>
				<clipPath id="SVGID_2_">
					<use xlink:href="#SVGID_1_"  style="overflow:visible;"/>
				</clipPath>
				<g class="st3">
					<g>
						<g>
							<defs>
								<rect id="SVGID_3_" x="1.3" y="0.7" width="619.5" height="186.6"/>
							</defs>
							<clipPath id="SVGID_4_">
								<use xlink:href="#SVGID_3_"  style="overflow:visible;"/>
							</clipPath>
							<path class="st4" d="M1.3,1.1h32.6c8.2,0,14.1,2.1,18.6,6.5c3.1,3.1,4.8,7.6,4.8,13.1c0,8.6-4.8,13.7-12.4,16.1v0.3
								c8.6,2.1,15.5,8.2,15.5,18.6c0,5.8-2.1,11-5.5,14.8c-4.5,4.5-11,7.2-19.2,7.2H1.3C1.3,77.7,1.3,1.1,1.3,1.1z M32.6,34
								c9.3,0,15.1-4.5,15.1-12.7c0-7.6-5.2-12-13.7-12H11V34H32.6z M35,69.1c5.5,0,9.6-1.4,12-3.8c2.1-2.4,3.4-5.2,3.4-8.9
								c0-9.6-6.9-14.4-16.1-14.4H10.9v27.1C10.9,69.1,35,69.1,35,69.1z"/>
						</g>
					</g>
					<g>
						<g>
							<defs>
								<rect id="SVGID_5_" x="1.3" y="0.7" width="619.5" height="186.6"/>
							</defs>
							<clipPath id="SVGID_6_">
								<use xlink:href="#SVGID_5_"  style="overflow:visible;"/>
							</clipPath>
							<path class="st5" d="M94.7,1.1h11l28.5,77h-10.7l-8.2-23.7H84.8l-8.2,23.4h-10L94.7,1.1z M87.5,46.8h25.1L103.7,21
								c-1.4-4.5-3.4-11-3.4-11H100c0,0-2.1,6.5-3.4,11L87.5,46.8z"/>
						</g>
					</g>
					<g>
						<g>
							<defs>
								<rect id="SVGID_7_" x="1.3" y="0.7" width="619.5" height="186.6"/>
							</defs>
							<clipPath id="SVGID_8_">
								<use xlink:href="#SVGID_7_"  style="overflow:visible;"/>
							</clipPath>
							<polygon class="st6" points="144.6,1.1 154.2,1.1 154.2,33.7 195.4,33.7 195.4,1.1 205,1.1 205,78 195.4,78 195.4,41.6 
								154.2,41.6 154.2,78 144.6,78 							"/>
						</g>
					</g>
					<g>
						<g>
							<defs>
								<rect id="SVGID_9_" x="1.3" y="0.7" width="619.5" height="186.6"/>
							</defs>
							<clipPath id="SVGID_10_">
								<use xlink:href="#SVGID_9_"  style="overflow:visible;"/>
							</clipPath>
							<path class="st7" d="M221.5,1.1h36.1c13.4,0,22.7,8.6,22.7,21c0,9.3-4.1,16.1-13.4,18.9v0.3c7.9,2.7,10.3,8.2,11,19.6
								c1,12.4,2.1,15.5,3.4,16.5v0.3H271c-1.7-1.4-2.1-4.5-2.7-17.2c-0.7-11.3-5.2-15.5-15.5-15.5h-21.3v32.6h-9.6V1.1H221.5z
								 M231.2,37.5h22.7c10.7,0,16.1-5.5,16.1-14.1c0-9.3-4.5-14.1-15.5-14.1h-23.4C231.2,9.3,231.2,37.5,231.2,37.5z"/>
						</g>
					</g>
					<g>
						<g>
							<defs>
								<rect id="SVGID_11_" x="1.3" y="0.7" width="619.5" height="186.6"/>
							</defs>
							<clipPath id="SVGID_12_">
								<use xlink:href="#SVGID_11_"  style="overflow:visible;"/>
							</clipPath>
							<path class="st8" d="M344.6,1.1h36.1c13.4,0,22.7,8.6,22.7,21c0,9.3-4.1,16.1-13.4,18.9v0.3c7.9,2.7,10.3,8.2,11,19.6
								c1,12.4,2.1,15.5,3.4,16.5v0.3H394c-1.7-1.4-2.1-4.5-2.7-17.2c-0.7-11.3-5.2-15.5-15.5-15.5h-21.3v32.6h-9.6V1.1H344.6z
								 M354.2,37.5h22.7c10.7,0,16.1-5.5,16.1-14.1c0-9.3-4.5-14.1-15.5-14.1h-23.4C354.2,9.3,354.2,37.5,354.2,37.5z"/>
						</g>
					</g>
					<g>
						<g>
							<defs>
								<rect id="SVGID_13_" x="1.3" y="0.7" width="619.5" height="186.6"/>
							</defs>
							<clipPath id="SVGID_14_">
								<use xlink:href="#SVGID_13_"  style="overflow:visible;"/>
							</clipPath>
							<path class="st9" d="M439.4,1.1h11l28.5,77h-10.7L460,54.7h-30.6L421.2,78h-10.3L439.4,1.1z M431.8,46.8h25.1L448,21
								c-1.4-4.5-3.4-11-3.4-11h-0.3c0,0-2.1,6.5-3.4,11L431.8,46.8z"/>
						</g>
					</g>
					<g>
						<g>
							<defs>
								<rect id="SVGID_15_" x="1.3" y="0.7" width="619.5" height="186.6"/>
							</defs>
							<clipPath id="SVGID_16_">
								<use xlink:href="#SVGID_15_"  style="overflow:visible;"/>
							</clipPath>
							<path class="st10" d="M486.1,52.9V1.1h9.6v51.2c0,13.1,7.6,18.9,20.3,18.9c12,0,19.6-5.5,19.6-18.9V1.1h9.6v52.2
								c0,18.6-13.1,26.1-29.6,26.1C498.8,79.1,486.1,71.8,486.1,52.9"/>
						</g>
					</g>
					<g>
						<g>
							<defs>
								<rect id="SVGID_17_" x="1.3" y="0.7" width="619.5" height="186.6"/>
							</defs>
							<clipPath id="SVGID_18_">
								<use xlink:href="#SVGID_17_"  style="overflow:visible;"/>
							</clipPath>
							<polygon class="st11" points="560.3,1.1 570,1.1 570,33.7 611.2,33.7 611.2,1.1 620.8,1.1 620.8,78 611.2,78 611.2,41.6 
								570,41.6 570,78 560.3,78 							"/>
						</g>
					</g>
					<g>
						<g>
							<defs>
								<rect id="SVGID_19_" x="1.3" y="0.7" width="619.5" height="186.6"/>
							</defs>
							<clipPath id="SVGID_20_">
								<use xlink:href="#SVGID_19_"  style="overflow:visible;"/>
							</clipPath>
							<polygon class="st12" points="1.3,108.9 10.9,108.9 10.9,147.1 48.7,108.9 61.1,108.9 29.8,139.5 63.5,185.9 52.1,185.9 
								23.3,146.4 10.9,158.8 10.9,185.9 1.3,185.9 							"/>
						</g>
					</g>
					<g>
						<g>
							<defs>
								<rect id="SVGID_21_" x="1.3" y="0.7" width="619.5" height="186.6"/>
							</defs>
							<clipPath id="SVGID_22_">
								<use xlink:href="#SVGID_21_"  style="overflow:visible;"/>
							</clipPath>
							<rect x="70.3" y="108.9" class="st13" width="9.6" height="77"/>
						</g>
					</g>
					<g>
						<g>
							<defs>
								<rect id="SVGID_23_" x="1.3" y="0.7" width="619.5" height="186.6"/>
							</defs>
							<clipPath id="SVGID_24_">
								<use xlink:href="#SVGID_23_"  style="overflow:visible;"/>
							</clipPath>
							<path class="st14" d="M94.4,108.9h36.1c13.4,0,22.7,8.6,22.7,21c0,9.3-4.1,16.1-13.4,18.9v0.3c7.9,2.7,10.3,8.2,11,19.6
								c1,12.4,2.1,15.5,3.4,16.5v0.3h-10.3c-1.7-1.4-2.1-4.5-2.7-17.2c-0.7-11.3-5.2-15.5-15.5-15.5h-21.3v32.6h-9.6v-76.6h-0.4
								V108.9z M104,145.4h22.7c10.7,0,16.1-5.5,16.1-14.1c0-9.3-4.5-14.1-15.5-14.1H104V145.4z"/>
						</g>
					</g>
					<g>
						<g>
							<defs>
								<rect id="SVGID_25_" x="1.3" y="0.7" width="619.5" height="186.6"/>
							</defs>
							<clipPath id="SVGID_26_">
								<use xlink:href="#SVGID_25_"  style="overflow:visible;"/>
							</clipPath>
							<path class="st15" d="M159.3,159.8h9.6c1.4,13.1,9.3,19.9,23.7,19.9c10.7,0,18.2-4.8,18.2-14.4c0-10.7-9.3-13.1-23-16.1
								c-13.4-3.1-25.1-6.9-25.1-21.3c0-12.7,10.7-20.3,26.1-20.3c19.2,0,27.1,10,29.2,24.1h-9.3c-1.4-11-8.6-16.5-19.9-16.5
								c-10.3,0-17.2,4.5-17.2,12.4c0,8.6,8.6,11.3,20.3,13.4c15.1,3.1,28.5,6.5,28.5,24.1c0,14.4-11.7,22.7-28.2,22.7
								C170.7,187.3,160.4,175.3,159.3,159.8"/>
						</g>
					</g>
					<g>
						<g>
							<defs>
								<rect id="SVGID_27_" x="1.3" y="0.7" width="619.5" height="186.6"/>
							</defs>
							<clipPath id="SVGID_28_">
								<use xlink:href="#SVGID_27_"  style="overflow:visible;"/>
							</clipPath>
							<path class="st16" d="M228.4,147.4c0-22.7,13.4-40.2,36.4-40.2c17.9,0,28.9,10.3,30.9,24.4h-9.6c-1.7-9.6-9.6-16.1-21.6-16.1
								c-16.8,0-26.5,13.7-26.5,31.6c0,18.9,10.3,31.6,26.5,31.6c14.4,0,21.3-10,22.3-21.3h9.6c0,7.6-3.8,16.1-9.3,21.6
								c-5.5,5.2-13.4,8.2-23,8.2C242.5,187.3,228.4,170.8,228.4,147.4"/>
						</g>
					</g>
					<g>
						<g>
							<defs>
								<rect id="SVGID_29_" x="1.3" y="0.7" width="619.5" height="186.6"/>
							</defs>
							<clipPath id="SVGID_30_">
								<use xlink:href="#SVGID_29_"  style="overflow:visible;"/>
							</clipPath>
							<polygon class="st17" points="307.1,108.9 316.7,108.9 316.7,141.6 358,141.6 358,108.9 367.6,108.9 367.6,185.9 358,185.9 
								358,149.5 316.7,149.5 316.7,185.9 307.1,185.9 							"/>
						</g>
					</g>
					<g>
						<g>
							<defs>
								<rect id="SVGID_31_" x="1.3" y="0.7" width="619.5" height="186.6"/>
							</defs>
							<clipPath id="SVGID_32_">
								<use xlink:href="#SVGID_31_"  style="overflow:visible;"/>
							</clipPath>
							<path class="st18" d="M381.7,108.9H392l35,53.6c2.7,4.1,5.5,10,5.5,10h0.3v-63.6h8.9v77h-10l-35.4-53.6
								c-2.4-3.8-5.8-9.6-5.8-9.6h-0.3v63.2h-8.9v-77C381.3,108.9,381.7,108.9,381.7,108.9z"/>
						</g>
					</g>
					<g>
						<g>
							<defs>
								<rect id="SVGID_33_" x="1.3" y="0.7" width="619.5" height="186.6"/>
							</defs>
							<clipPath id="SVGID_34_">
								<use xlink:href="#SVGID_33_"  style="overflow:visible;"/>
							</clipPath>
							<rect x="456.2" y="108.9" class="st19" width="9.6" height="77"/>
						</g>
					</g>
					<g>
						<g>
							<defs>
								<rect id="SVGID_35_" x="1.3" y="0.7" width="619.5" height="186.6"/>
							</defs>
							<clipPath id="SVGID_36_">
								<use xlink:href="#SVGID_35_"  style="overflow:visible;"/>
							</clipPath>
							<path class="st20" d="M479.9,108.9h10.3l35,53.6c2.7,4.1,5.5,10,5.5,10h0.3v-63.6h8.9v77h-10l-35.4-53.6
								c-2.4-3.8-5.8-9.6-5.8-9.6h-0.3v63.2h-8.9v-77C479.5,108.9,479.9,108.9,479.9,108.9z"/>
						</g>
					</g>
					<g>
						<g>
							<defs>
								<rect id="SVGID_37_" x="1.3" y="0.7" width="619.5" height="186.6"/>
							</defs>
							<clipPath id="SVGID_38_">
								<use xlink:href="#SVGID_37_"  style="overflow:visible;"/>
							</clipPath>
							<path class="st21" d="M611.9,175.6L611.9,175.6c-5.8,7.9-14.1,11.7-24.4,11.7c-21.6,0-36.1-16.5-36.1-39.9
								c0-22.7,12.7-40.5,37.1-40.5c17.9,0,28.9,9.6,31.3,24.7h-10c-2.1-10.3-9.3-16.5-21.6-16.5c-18.6,0-26.8,13.7-26.8,32
								c0,18.9,11,31.6,26.5,31.6c15.8,0,23.4-10.7,23.4-23.7v-1.7h-23V145h33v40.5H615L611.9,175.6z"/>
						</g>
					</g>
				</g>
			</g>
		</g>
	</g>
</g>
</svg>
